<?xml version="1.0" encoding="UTF-8"?>
<svg id="_레이어_1" data-name="레이어 1" xmlns="http://www.w3.org/2000/svg" xmlns:xlink="http://www.w3.org/1999/xlink" viewBox="0 0 112.5 43.17">
  <defs>
    <style>
      .cls-1 {
        clip-path: url(#clippath-6);
      }

      .cls-2 {
        clip-path: url(#clippath-7);
      }

      .cls-3 {
        clip-path: url(#clippath-4);
      }

      .cls-4 {
        clip-path: url(#clippath-9);
      }

      .cls-5 {
        clip-path: url(#clippath-10);
      }

      .cls-6 {
        clip-path: url(#clippath-11);
      }

      .cls-7 {
        fill: #040000;
      }

      .cls-7, .cls-8 {
        fill-rule: evenodd;
      }

      .cls-9 {
        clip-path: url(#clippath-1);
      }

      .cls-10 {
        clip-path: url(#clippath-5);
      }

      .cls-11 {
        clip-path: url(#clippath-8);
      }

      .cls-12 {
        clip-path: url(#clippath-3);
      }

      .cls-13 {
        clip-path: url(#clippath-12);
      }

      .cls-14 {
        clip-rule: evenodd;
        fill: none;
      }

      .cls-15 {
        clip-path: url(#clippath-2);
      }

      .cls-16 {
        clip-path: url(#clippath-13);
      }

      .cls-8 {
        fill: #e71f19;
      }

      .cls-17 {
        clip-path: url(#clippath);
      }
    </style>
    <clipPath id="clippath">
      <polygon class="cls-14" points="0 43.17 112.5 43.17 112.5 0 0 0 0 43.17 0 43.17"/>
    </clipPath>
    <clipPath id="clippath-1">
      <polygon class="cls-14" points="0 43.17 112.5 43.17 112.5 0 0 0 0 43.17 0 43.17"/>
    </clipPath>
    <clipPath id="clippath-2">
      <polygon class="cls-14" points="0 43.17 112.5 43.17 112.5 0 0 0 0 43.17 0 43.17"/>
    </clipPath>
    <clipPath id="clippath-3">
      <polygon class="cls-14" points="0 43.17 112.5 43.17 112.5 0 0 0 0 43.17 0 43.17"/>
    </clipPath>
    <clipPath id="clippath-4">
      <polygon class="cls-14" points="0 43.17 112.5 43.17 112.5 0 0 0 0 43.17 0 43.17"/>
    </clipPath>
    <clipPath id="clippath-5">
      <polygon class="cls-14" points="0 43.17 112.5 43.17 112.5 0 0 0 0 43.17 0 43.17"/>
    </clipPath>
    <clipPath id="clippath-6">
      <polygon class="cls-14" points="0 43.17 112.5 43.17 112.5 0 0 0 0 43.17 0 43.17"/>
    </clipPath>
    <clipPath id="clippath-7">
      <polygon class="cls-14" points="0 43.17 112.5 43.17 112.5 0 0 0 0 43.17 0 43.17"/>
    </clipPath>
    <clipPath id="clippath-8">
      <polygon class="cls-14" points="0 43.17 112.5 43.17 112.5 0 0 0 0 43.17 0 43.17"/>
    </clipPath>
    <clipPath id="clippath-9">
      <polygon class="cls-14" points="0 43.17 112.5 43.17 112.5 0 0 0 0 43.17 0 43.17"/>
    </clipPath>
    <clipPath id="clippath-10">
      <polygon class="cls-14" points="0 43.17 112.5 43.17 112.5 0 0 0 0 43.17 0 43.17"/>
    </clipPath>
    <clipPath id="clippath-11">
      <polygon class="cls-14" points="0 43.17 112.5 43.17 112.5 0 0 0 0 43.17 0 43.17"/>
    </clipPath>
    <clipPath id="clippath-12">
      <polygon class="cls-14" points="0 43.17 112.5 43.17 112.5 0 0 0 0 43.17 0 43.17"/>
    </clipPath>
    <clipPath id="clippath-13">
      <polygon class="cls-14" points="0 43.17 112.5 43.17 112.5 0 0 0 0 43.17 0 43.17"/>
    </clipPath>
  </defs>
  <g class="cls-17">
    <path class="cls-7" d="M66.96,25.94c-4.75,2.95-8.1,2.47-10.68,1.14-1.83-.94-3.27-2.32-4.15-5.15-1.17-4.88-1.48-11.82,1.78-15.65.89-1,2.04-1.67,3.25-2.08,3.39-1.13,7.25-.17,9.8,2.25-2.23-3.6-8.93-4.9-13.93-3.22-1.78.6-3.35,1.57-4.57,2.77-4.35,4.24-4.45,11.27-2.43,16.04,1.32,3.12,3.54,5.27,6.57,6.47,4.24,1.68,10.06,1.48,14.37-2.57h0Z"/>
    <g class="cls-9">
      <polygon class="cls-7" points="68.48 2.59 76.03 2.59 76.03 29.5 68.48 29.5 68.48 2.59 68.48 2.59"/>
      <g class="cls-15">
        <polygon class="cls-7" points="83.13 2.59 90.68 2.59 90.68 29.5 83.13 29.5 83.13 2.59 83.13 2.59"/>
        <g class="cls-12">
          <polygon class="cls-7" points="71.92 15.28 86.75 15.28 86.75 16.68 71.92 16.68 71.92 15.28 71.92 15.28"/>
          <g class="cls-3">
            <polygon class="cls-7" points="93.1 2.54 100.65 2.54 100.65 29.46 93.1 29.46 93.1 2.54 93.1 2.54"/>
            <g class="cls-10">
              <polygon class="cls-7" points="93.1 2.54 108.98 2.54 108.98 3.83 93.1 3.83 93.1 2.54 93.1 2.54"/>
              <g class="cls-1">
                <polygon class="cls-7" points="93.1 15.4 107.98 15.4 107.98 16.39 93.1 16.39 93.1 15.4 93.1 15.4"/>
                <g class="cls-2">
                  <polygon class="cls-7" points="93.1 28.01 108.98 28.01 108.98 29.46 93.1 29.46 93.1 28.01 93.1 28.01"/>
                  <g class="cls-11">
                    <polygon class="cls-8" points=".44 .44 112.07 .44 112.07 1.41 .44 1.41 .44 .44 .44 .44"/>
                    <g class="cls-4">
                      <path class="cls-8" d="M42.91,26.52l.14-2.38V2.43h-6.28s.05,22.92.05,22.92l-.68.94c0,7.97-5.64,13.72-10.92,16.65,1.82-.39,3.32-.7,4.76-1.17,6.53-2.16,11.8-7.9,12.94-15.25h0Z"/>
                      <g class="cls-5">
                        <path class="cls-8" d="M23.49,3.47c2.08,2.63,5.92,2.77,7.84,0-2.56,1.38-5.12,1.38-7.84,0h0Z"/>
                        <g class="cls-6">
                          <path class="cls-8" d="M20.25,2.47h-.48s.03,20.66.03,20.66c.03,3.7,4.5,6.68,9.99,6.66,5.37-.02,9.69-2.97,9.67-6.59l-.03-20.76h-2.66s.02,19.95.02,19.95c.02,3.52-3.62,6.38-8.12,6.4-4.61.02-8.37-2.87-8.39-6.47l-.03-19.85h0Z"/>
                          <g class="cls-13">
                            <path class="cls-8" d="M20.27,1.11h-2.33s-7.29,24.98-7.29,24.98h11.19c-1.02-1.1-1.57-2.42-1.57-3.77V2.43s-.02-.08-.02-.08l.02-.63v-.62h0Z"/>
                            <g class="cls-16">
                              <polygon class="cls-8" points="18.3 1.11 20.28 1.11 20.28 24.87 18.3 24.87 18.3 1.11 18.3 1.11"/>
                            </g>
                          </g>
                        </g>
                      </g>
                    </g>
                  </g>
                </g>
              </g>
            </g>
          </g>
        </g>
      </g>
    </g>
  </g>
</svg>